<?xml version="1.0" encoding="UTF-8"?>
<!-- LittleVillage — tło „klątwa”: Maciek zasłania Mariannę (# pokaz: maciek)
     Współrzędne płótna 390×844, viewBox = położenie warstwy. Animacje: Resources/Raw/backgrounds.json. -->
<svg xmlns="http://www.w3.org/2000/svg" width="160" height="160" viewBox="220 262 160 160">
<defs>
<filter id="ink" filterUnits="userSpaceOnUse" x="-60" y="-60" width="520" height="980">
<feTurbulence type="fractalNoise" baseFrequency="0.035" numOctaves="2" seed="7" result="n"/>
<feDisplacementMap in="SourceGraphic" in2="n" scale="3.2" xChannelSelector="R" yChannelSelector="G"/>
</filter>
<pattern id="hatch" width="7" height="7" patternUnits="userSpaceOnUse" patternTransform="rotate(-35)">
<line x1="0" y1="0" x2="0" y2="7" stroke="#000000" stroke-width="1.5"/>
</pattern>
<pattern id="hatchDense" width="4" height="4" patternUnits="userSpaceOnUse" patternTransform="rotate(-35)">
<line x1="0" y1="0" x2="0" y2="4" stroke="#000000" stroke-width="1.7"/>
</pattern>
<pattern id="hatchNight" width="3" height="3" patternUnits="userSpaceOnUse" patternTransform="rotate(-35)">
<line x1="0" y1="0" x2="0" y2="3" stroke="#000000" stroke-width="1.9"/>
</pattern>
<pattern id="water" width="9" height="5" patternUnits="userSpaceOnUse">
<line x1="0" y1="2.5" x2="5" y2="2.5" stroke="#000000" stroke-width="1.3"/>
</pattern>
</defs>
<g filter="url(#ink)" stroke="#000000" stroke-linecap="round" stroke-linejoin="round">
<g stroke-width="2.2"><path d="M328.4 364.0L314.0 409.6Q338.0 415.6 362.0 409.6L347.6 364.0Z" fill="#000000"/><path d="M330.8 366.4L326.0 401.2Q338.0 404.8 350.0 401.2L345.2 366.4Z" fill="#FFFFFF" stroke-width="1.7"/><path d="M326.0 366.4C324.8 352.0 328.4 342.4 333.2 340.0H342.8C347.6 342.4 351.2 352.0 350.0 366.4Z" fill="#000000"/><circle cx="338" cy="332.8" r="7.8" fill="#000000"/><path d="M327.8 335.2Q338.0 311.2 348.2 335.2L342.8 340.0Q338.0 336.4 333.2 340.0Z" fill="#FFFFFF" stroke-width="2.2"/><path d="M332.0 341.2l-3.6 7.2M334.4 341.2l1.2 7.2" fill="none" stroke-width="1.9"/></g>
<g stroke-width="2.2"><path d="M255.8 418.0L260.2 374.5L267.4 374.5L266.0 418.0ZM276.1 418.0L268.9 374.5L261.6 374.5L266.0 418.0Z" fill="#000000"/><path d="M247.2 377.4C244.2 354.2 248.6 333.9 257.3 328.1H274.7C283.4 333.9 287.8 354.2 284.9 377.4Z" fill="#000000"/><circle cx="266" cy="317.9" r="10.9" fill="#000000"/></g>
</g>
</svg>
