<?xml version="1.0" encoding="UTF-8"?>
<!-- LittleVillage — tło „klątwa”: chata nocą, księżyc
     Współrzędne płótna 390×844, viewBox = położenie warstwy. Animacje: Resources/Raw/backgrounds.json. -->
<svg xmlns="http://www.w3.org/2000/svg" width="390" height="440" viewBox="0 0 390 440">
<defs>
<filter id="ink" filterUnits="userSpaceOnUse" x="-60" y="-60" width="520" height="980">
<feTurbulence type="fractalNoise" baseFrequency="0.035" numOctaves="2" seed="7" result="n"/>
<feDisplacementMap in="SourceGraphic" in2="n" scale="3.2" xChannelSelector="R" yChannelSelector="G"/>
</filter>
<pattern id="hatch" width="7" height="7" patternUnits="userSpaceOnUse" patternTransform="rotate(-35)">
<line x1="0" y1="0" x2="0" y2="7" stroke="#000000" stroke-width="1.5"/>
</pattern>
<pattern id="hatchDense" width="4" height="4" patternUnits="userSpaceOnUse" patternTransform="rotate(-35)">
<line x1="0" y1="0" x2="0" y2="4" stroke="#000000" stroke-width="1.7"/>
</pattern>
<pattern id="hatchNight" width="3" height="3" patternUnits="userSpaceOnUse" patternTransform="rotate(-35)">
<line x1="0" y1="0" x2="0" y2="3" stroke="#000000" stroke-width="1.9"/>
</pattern>
<pattern id="water" width="9" height="5" patternUnits="userSpaceOnUse">
<line x1="0" y1="2.5" x2="5" y2="2.5" stroke="#000000" stroke-width="1.3"/>
</pattern>
</defs>
<rect width="390" height="440" fill="#EDEBE6" stroke="none"/>
<g filter="url(#ink)" stroke="#000000" stroke-linecap="round" stroke-linejoin="round">
<path d="M0 0H390V230H0Z" fill="url(#hatchNight)" stroke="none"/>
<circle cx="306" cy="70" r="24" fill="#FFFFFF" stroke-width="3"/>
<circle cx="298" cy="64" r="4" fill="none" stroke-width="1.4"/><circle cx="314" cy="80" r="3" fill="none" stroke-width="1.4"/>
<path d="M197 96m-3 0h6m-3 -3v6" fill="none" stroke="#FFFFFF" stroke-width="1.2"/>
<path d="M216 83m-3 0h6m-3 -3v6" fill="none" stroke="#FFFFFF" stroke-width="1.2"/>
<path d="M319 40m-3 0h6m-3 -3v6" fill="none" stroke="#FFFFFF" stroke-width="1.2"/>
<path d="M177 155m-3 0h6m-3 -3v6" fill="none" stroke="#FFFFFF" stroke-width="1.2"/>
<path d="M234 182m-3 0h6m-3 -3v6" fill="none" stroke="#FFFFFF" stroke-width="1.2"/>
<path d="M117 78m-3 0h6m-3 -3v6" fill="none" stroke="#FFFFFF" stroke-width="1.2"/>
<path d="M123 35m-3 0h6m-3 -3v6" fill="none" stroke="#FFFFFF" stroke-width="1.2"/>
<path d="M38 108m-3 0h6m-3 -3v6" fill="none" stroke="#FFFFFF" stroke-width="1.2"/>
<path d="M120 120m-3 0h6m-3 -3v6" fill="none" stroke="#FFFFFF" stroke-width="1.2"/>
<path d="M366 199m-3 0h6m-3 -3v6" fill="none" stroke="#FFFFFF" stroke-width="1.2"/>
<path d="M298 73m-3 0h6m-3 -3v6" fill="none" stroke="#FFFFFF" stroke-width="1.2"/>
<path d="M152 181m-3 0h6m-3 -3v6" fill="none" stroke="#FFFFFF" stroke-width="1.2"/>
<path d="M97 167m-3 0h6m-3 -3v6" fill="none" stroke="#FFFFFF" stroke-width="1.2"/>
<path d="M101 95m-3 0h6m-3 -3v6" fill="none" stroke="#FFFFFF" stroke-width="1.2"/>
<path d="M216 192m-3 0h6m-3 -3v6" fill="none" stroke="#FFFFFF" stroke-width="1.2"/>
<path d="M281 170m-3 0h6m-3 -3v6" fill="none" stroke="#FFFFFF" stroke-width="1.2"/>
<path d="M139 76m-3 0h6m-3 -3v6" fill="none" stroke="#FFFFFF" stroke-width="1.2"/>
<path d="M332 121m-3 0h6m-3 -3v6" fill="none" stroke="#FFFFFF" stroke-width="1.2"/>
<path d="M-10 228C100 220 290 226 400 222V440H-10Z" fill="url(#hatch)" stroke-width="3"/>
<rect x="88" y="373" width="214" height="13" rx="6" fill="#FFFFFF" stroke-width="2.4"/>
<rect x="93" y="360" width="204" height="13" rx="6" fill="#FFFFFF" stroke-width="2.4"/>
<rect x="88" y="347" width="214" height="13" rx="6" fill="#FFFFFF" stroke-width="2.4"/>
<rect x="93" y="334" width="204" height="13" rx="6" fill="#FFFFFF" stroke-width="2.4"/>
<rect x="88" y="321" width="214" height="13" rx="6" fill="#FFFFFF" stroke-width="2.4"/>
<rect x="93" y="308" width="204" height="13" rx="6" fill="#FFFFFF" stroke-width="2.4"/>
<rect x="88" y="295" width="214" height="13" rx="6" fill="#FFFFFF" stroke-width="2.4"/>
<rect x="93" y="282" width="204" height="13" rx="6" fill="#FFFFFF" stroke-width="2.4"/>
<path d="M78 284L195 196L312 284C280 292 240 284 200 292C160 284 110 292 78 284Z" fill="url(#hatchDense)" stroke-width="3.4"/>
<rect x="178" y="330" width="34" height="56" fill="#000000" stroke-width="2.4"/>
<path d="M184 336l6 44M206 334l-4 46" fill="none" stroke="#FFFFFF" stroke-width="1"/>
<rect x="238" y="320" width="22" height="16" fill="#000000" stroke-width="2"/>
</g>
</svg>
