<?xml version="1.0" encoding="UTF-8"?>
<!-- LittleVillage — tło „lata spokoju”: trzy kapliczki z kwiatami (# pokaz: kapliczki)
     Współrzędne płótna 390×844, viewBox = położenie warstwy. Animacje: Resources/Raw/backgrounds.json. -->
<svg xmlns="http://www.w3.org/2000/svg" width="320" height="280" viewBox="40 150 320 280">
<defs>
<filter id="ink" filterUnits="userSpaceOnUse" x="-60" y="-60" width="520" height="980">
<feTurbulence type="fractalNoise" baseFrequency="0.035" numOctaves="2" seed="7" result="n"/>
<feDisplacementMap in="SourceGraphic" in2="n" scale="3.2" xChannelSelector="R" yChannelSelector="G"/>
</filter>
<pattern id="hatch" width="7" height="7" patternUnits="userSpaceOnUse" patternTransform="rotate(-35)">
<line x1="0" y1="0" x2="0" y2="7" stroke="#000000" stroke-width="1.5"/>
</pattern>
<pattern id="hatchDense" width="4" height="4" patternUnits="userSpaceOnUse" patternTransform="rotate(-35)">
<line x1="0" y1="0" x2="0" y2="4" stroke="#000000" stroke-width="1.7"/>
</pattern>
<pattern id="hatchNight" width="3" height="3" patternUnits="userSpaceOnUse" patternTransform="rotate(-35)">
<line x1="0" y1="0" x2="0" y2="3" stroke="#000000" stroke-width="1.9"/>
</pattern>
<pattern id="water" width="9" height="5" patternUnits="userSpaceOnUse">
<line x1="0" y1="2.5" x2="5" y2="2.5" stroke="#000000" stroke-width="1.3"/>
</pattern>
</defs>
<g filter="url(#ink)" stroke="#000000" stroke-linecap="round" stroke-linejoin="round">
<path d="M76.2 418V358.2H91.8V418Z" fill="#FFFFFF" stroke-width="3.1"/><path d="M71.0 358.2V324.4H97.0V358.2Z" fill="#FFFFFF" stroke-width="3.1"/><path d="M76.2 353.0V332.2Q84 324.4 91.8 332.2V353.0Z" fill="#000000" stroke-width="1.4"/><circle cx="84" cy="337.4" r="2.3" fill="#FFFFFF" stroke="none"/><path d="M63.2 327.0L84 306.2L104.8 327.0Z" fill="url(#hatchDense)" stroke-width="2.9"/><path d="M84 306.2V290.6M78.8 295.8H89.2" fill="none" stroke-width="2.3"/><path d="M68.4 360.8q15.6 10.4 31.2 0" fill="none" stroke-width="1.4"/><path d="M64.5 422.0l0 -10.4" fill="none" stroke-width="1.2"/><circle cx="64.5" cy="410.3" r="3.1" fill="#FFFFFF" stroke-width="1"/><path d="M71.0 420.0l0 -10.4" fill="none" stroke-width="1.2"/><circle cx="71.0" cy="408.3" r="3.1" fill="#000000" stroke-width="1"/><path d="M77.5 422.0l0 -10.4" fill="none" stroke-width="1.2"/><circle cx="77.5" cy="410.3" r="3.1" fill="#FFFFFF" stroke-width="1"/><path d="M84.0 420.0l0 -10.4" fill="none" stroke-width="1.2"/><circle cx="84.0" cy="408.3" r="3.1" fill="#000000" stroke-width="1"/><path d="M90.5 422.0l0 -10.4" fill="none" stroke-width="1.2"/><circle cx="90.5" cy="410.3" r="3.1" fill="#FFFFFF" stroke-width="1"/><path d="M97.0 420.0l0 -10.4" fill="none" stroke-width="1.2"/><circle cx="97.0" cy="408.3" r="3.1" fill="#000000" stroke-width="1"/><path d="M103.5 422.0l0 -10.4" fill="none" stroke-width="1.2"/><circle cx="103.5" cy="410.3" r="3.1" fill="#FFFFFF" stroke-width="1"/>
<path d="M277.2 252V215.2H286.8V252Z" fill="#FFFFFF" stroke-width="1.9"/><path d="M274.0 215.2V194.4H290.0V215.2Z" fill="#FFFFFF" stroke-width="1.9"/><path d="M277.2 212.0V199.2Q282 194.4 286.8 199.2V212.0Z" fill="#000000" stroke-width="1.4"/><circle cx="282" cy="202.4" r="1.4" fill="#FFFFFF" stroke="none"/><path d="M269.2 196.0L282 183.2L294.8 196.0Z" fill="url(#hatchDense)" stroke-width="1.8"/><path d="M282 183.2V173.6M278.8 176.8H285.2" fill="none" stroke-width="1.4"/><path d="M272.4 216.8q9.6 6.4 19.2 0" fill="none" stroke-width="1.4"/><path d="M270.0 256.0l0 -6.4" fill="none" stroke-width="1.2"/><circle cx="270.0" cy="248.8" r="1.9" fill="#FFFFFF" stroke-width="1"/><path d="M274.0 254.0l0 -6.4" fill="none" stroke-width="1.2"/><circle cx="274.0" cy="246.8" r="1.9" fill="#000000" stroke-width="1"/><path d="M278.0 256.0l0 -6.4" fill="none" stroke-width="1.2"/><circle cx="278.0" cy="248.8" r="1.9" fill="#FFFFFF" stroke-width="1"/><path d="M282.0 254.0l0 -6.4" fill="none" stroke-width="1.2"/><circle cx="282.0" cy="246.8" r="1.9" fill="#000000" stroke-width="1"/><path d="M286.0 256.0l0 -6.4" fill="none" stroke-width="1.2"/><circle cx="286.0" cy="248.8" r="1.9" fill="#FFFFFF" stroke-width="1"/><path d="M290.0 254.0l0 -6.4" fill="none" stroke-width="1.2"/><circle cx="290.0" cy="246.8" r="1.9" fill="#000000" stroke-width="1"/><path d="M294.0 256.0l0 -6.4" fill="none" stroke-width="1.2"/><circle cx="294.0" cy="248.8" r="1.9" fill="#FFFFFF" stroke-width="1"/>
<path d="M210.7 226V200.7H217.3V226Z" fill="#FFFFFF" stroke-width="1.3"/><path d="M208.5 200.7V186.4H219.5V200.7Z" fill="#FFFFFF" stroke-width="1.3"/><path d="M210.7 198.5V189.7Q214 186.4 217.3 189.7V198.5Z" fill="#000000" stroke-width="1.4"/><circle cx="214" cy="191.9" r="1.0" fill="#FFFFFF" stroke="none"/><path d="M205.2 187.5L214 178.7L222.8 187.5Z" fill="url(#hatchDense)" stroke-width="1.2"/><path d="M214 178.7V172.1M211.8 174.3H216.2" fill="none" stroke-width="1.0"/><path d="M207.4 201.8q6.6 4.4 13.2 0" fill="none" stroke-width="1.4"/><path d="M205.8 230.0l0 -4.4" fill="none" stroke-width="1.2"/><circle cx="205.8" cy="225.1" r="1.3" fill="#FFFFFF" stroke-width="1"/><path d="M208.5 228.0l0 -4.4" fill="none" stroke-width="1.2"/><circle cx="208.5" cy="223.1" r="1.3" fill="#000000" stroke-width="1"/><path d="M211.2 230.0l0 -4.4" fill="none" stroke-width="1.2"/><circle cx="211.2" cy="225.1" r="1.3" fill="#FFFFFF" stroke-width="1"/><path d="M214.0 228.0l0 -4.4" fill="none" stroke-width="1.2"/><circle cx="214.0" cy="223.1" r="1.3" fill="#000000" stroke-width="1"/><path d="M216.8 230.0l0 -4.4" fill="none" stroke-width="1.2"/><circle cx="216.8" cy="225.1" r="1.3" fill="#FFFFFF" stroke-width="1"/><path d="M219.5 228.0l0 -4.4" fill="none" stroke-width="1.2"/><circle cx="219.5" cy="223.1" r="1.3" fill="#000000" stroke-width="1"/><path d="M222.2 230.0l0 -4.4" fill="none" stroke-width="1.2"/><circle cx="222.2" cy="225.1" r="1.3" fill="#FFFFFF" stroke-width="1"/>
</g>
</svg>
