<?xml version="1.0" encoding="UTF-8"?>
<!-- LittleVillage — tło „legenda”: chłopi z widłami, młotem i pochodnią, deski na drzwiach (# pokaz: chlopi)
     Współrzędne płótna 390×844, viewBox = położenie warstwy. Animacje: Resources/Raw/backgrounds.json. -->
<svg xmlns="http://www.w3.org/2000/svg" width="290" height="146" viewBox="100 264 290 146">
<defs>
<filter id="ink" filterUnits="userSpaceOnUse" x="-60" y="-60" width="520" height="980">
<feTurbulence type="fractalNoise" baseFrequency="0.035" numOctaves="2" seed="7" result="n"/>
<feDisplacementMap in="SourceGraphic" in2="n" scale="3.2" xChannelSelector="R" yChannelSelector="G"/>
</filter>
<pattern id="hatch" width="7" height="7" patternUnits="userSpaceOnUse" patternTransform="rotate(-35)">
<line x1="0" y1="0" x2="0" y2="7" stroke="#000000" stroke-width="1.5"/>
</pattern>
<pattern id="hatchDense" width="4" height="4" patternUnits="userSpaceOnUse" patternTransform="rotate(-35)">
<line x1="0" y1="0" x2="0" y2="4" stroke="#000000" stroke-width="1.7"/>
</pattern>
<pattern id="hatchNight" width="3" height="3" patternUnits="userSpaceOnUse" patternTransform="rotate(-35)">
<line x1="0" y1="0" x2="0" y2="3" stroke="#000000" stroke-width="1.9"/>
</pattern>
<pattern id="water" width="9" height="5" patternUnits="userSpaceOnUse">
<line x1="0" y1="2.5" x2="5" y2="2.5" stroke="#000000" stroke-width="1.3"/>
</pattern>
</defs>
<g filter="url(#ink)" stroke="#000000" stroke-linecap="round" stroke-linejoin="round">
<g transform="translate(250 396) scale(1.35) translate(-250 -396)">
<path d="M230 326l26 20M230 346l26-20M228 336h30" fill="none" stroke="#FFFFFF" stroke-width="4"/>
<path d="M230 326l26 20M230 346l26-20M228 336h30" fill="none" stroke-width="1.4"/>
<g stroke-width="2.2"><path d="M155 392l2-20h4l-1 20zM165 392l-4-20h-4l2 20z" fill="#000000"/><path d="M151 374C150 362 152 352 156 349H164C168 352 170 362 169 374Z" fill="#000000"/><circle cx="160" cy="344" r="5" fill="#000000"/><path d="M152 341h16l-4-4h-8z" fill="#000000"/><path d="M167 356L176 320M172 322l2-10M176 320l1-10M180 322l0-10" fill="none" stroke-width="2.4"/></g>
<g stroke-width="2.2"><path d="M181 400l2-20h4l-1 20zM191 400l-4-20h-4l2 20z" fill="#000000"/><path d="M177 382C176 370 178 360 182 357H190C194 360 196 370 195 382Z" fill="#000000"/><circle cx="186" cy="352" r="5" fill="#000000"/><path d="M178 349h16l-4-4h-8z" fill="#000000"/><path d="M193 364L200 336" fill="none" stroke-width="3"/><path d="M200 336c-8-6-4-16 0-22c2 6 8 8 4 14c4-2 6-6 4-10c6 6 4 16-8 18z" fill="#FFFFFF" stroke-width="1.8"/></g>
<g stroke-width="2.2"><path d="M309 398l2-20h4l-1 20zM319 398l-4-20h-4l2 20z" fill="#000000"/><path d="M305 380C304 368 306 358 310 355H318C322 358 324 368 323 380Z" fill="#000000"/><circle cx="314" cy="350" r="5" fill="#000000"/><path d="M306 347h16l-4-4h-8z" fill="#000000"/><path d="M307 364L296 346M292 348l8-5" fill="none" stroke-width="3"/></g>
<g stroke-width="2.2"><path d="M333 390l2-20h4l-1 20zM343 390l-4-20h-4l2 20z" fill="#000000"/><path d="M329 372C328 360 330 350 334 347H342C346 350 348 360 347 372Z" fill="#000000"/><circle cx="338" cy="342" r="5" fill="#000000"/><path d="M330 339h16l-4-4h-8z" fill="#000000"/><path d="M345 354L354 318M350 320l2-10M354 318l1-10M358 320l0-10" fill="none" stroke-width="2.4"/></g>
</g>
</g>
</svg>
