<?xml version="1.0" encoding="UTF-8"?>
<!-- LittleVillage — tło „legenda”: płomienie i dym (# pokaz: ogien, migocze)
     Współrzędne płótna 390×844, viewBox = położenie warstwy. Animacje: Resources/Raw/backgrounds.json. -->
<svg xmlns="http://www.w3.org/2000/svg" width="182" height="346" viewBox="156 4 182 346">
<defs>
<filter id="ink" filterUnits="userSpaceOnUse" x="-60" y="-60" width="520" height="980">
<feTurbulence type="fractalNoise" baseFrequency="0.035" numOctaves="2" seed="7" result="n"/>
<feDisplacementMap in="SourceGraphic" in2="n" scale="3.2" xChannelSelector="R" yChannelSelector="G"/>
</filter>
<pattern id="hatch" width="7" height="7" patternUnits="userSpaceOnUse" patternTransform="rotate(-35)">
<line x1="0" y1="0" x2="0" y2="7" stroke="#000000" stroke-width="1.5"/>
</pattern>
<pattern id="hatchDense" width="4" height="4" patternUnits="userSpaceOnUse" patternTransform="rotate(-35)">
<line x1="0" y1="0" x2="0" y2="4" stroke="#000000" stroke-width="1.7"/>
</pattern>
<pattern id="hatchNight" width="3" height="3" patternUnits="userSpaceOnUse" patternTransform="rotate(-35)">
<line x1="0" y1="0" x2="0" y2="3" stroke="#000000" stroke-width="1.9"/>
</pattern>
<pattern id="water" width="9" height="5" patternUnits="userSpaceOnUse">
<line x1="0" y1="2.5" x2="5" y2="2.5" stroke="#000000" stroke-width="1.3"/>
</pattern>
</defs>
<g filter="url(#ink)" stroke="#000000" stroke-linecap="round" stroke-linejoin="round">
<g transform="translate(250 396) scale(1.35) translate(-250 -396)">
<path d="M236 262C226 230 250 210 236 180C226 160 246 140 240 116M262 270C276 240 256 216 270 190C280 170 262 150 270 130" fill="none" stroke="#000000" stroke-width="7" stroke-linecap="round" opacity="0.8"/>
<path d="M194 302C194 290 202 284 204 272C207 281 212 278 211 268C219 284 218 293 218 302Z" fill="#FFFFFF" stroke-width="2.2"/><path d="M201 302C201 293 206 290 206 284C210 290 211 296 211 302Z" fill="#000000" stroke="none"/>
<path d="M216 296C216 280 226 272 227 256C231 268 237 264 236 250C245 272 244 284 244 296Z" fill="#FFFFFF" stroke-width="2.2"/><path d="M224 296C224 284 230 280 230 272C234 280 236 288 236 296Z" fill="#000000" stroke="none"/>
<path d="M236 286C236 265 247 255 249 234C254 250 260 244 258 226C270 255 268 270 268 286Z" fill="#FFFFFF" stroke-width="2.2"/><path d="M246 286C246 270 252 265 252 255C257 265 258 276 258 286Z" fill="#000000" stroke="none"/>
<path d="M262 296C262 280 272 272 273 256C277 268 283 264 282 250C291 272 290 284 290 296Z" fill="#FFFFFF" stroke-width="2.2"/><path d="M270 296C270 284 276 280 276 272C280 280 282 288 282 296Z" fill="#000000" stroke="none"/>
<path d="M287 302C287 291 295 285 296 274C299 282 304 280 302 270C310 285 309 294 309 302Z" fill="#FFFFFF" stroke-width="2.2"/><path d="M294 302C294 294 298 291 298 285C301 291 302 296 302 302Z" fill="#000000" stroke="none"/>
<path d="M191 352C191 343 197 339 198 330C201 337 204 334 204 327C210 339 209 345 209 352Z" fill="#FFFFFF" stroke-width="2.2"/><path d="M196 352C196 345 200 343 200 339C203 343 204 348 204 352Z" fill="#000000" stroke="none"/>
<path d="M281 350C281 340 287 336 288 326C291 333 294 331 294 322C300 336 299 343 299 350Z" fill="#FFFFFF" stroke-width="2.2"/><path d="M286 350C286 343 290 340 290 336C293 340 294 345 294 350Z" fill="#000000" stroke="none"/>
<path d="M254 354C254 347 260 343 260 336C263 341 266 340 265 333C271 343 270 349 270 354Z" fill="#FFFFFF" stroke-width="2.2"/><path d="M259 354C259 349 262 347 262 343C264 347 265 350 265 354Z" fill="#000000" stroke="none"/>
</g>
</g>
</svg>
