<?xml version="1.0" encoding="UTF-8"?>
<!-- LittleVillage — tło „miasto”: Maciek
     Współrzędne płótna 390×844, viewBox = położenie warstwy. Animacje: Resources/Raw/backgrounds.json. -->
<svg xmlns="http://www.w3.org/2000/svg" width="60" height="126" viewBox="40 300 60 126">
<defs>
<filter id="ink" filterUnits="userSpaceOnUse" x="-60" y="-60" width="520" height="980">
<feTurbulence type="fractalNoise" baseFrequency="0.035" numOctaves="2" seed="7" result="n"/>
<feDisplacementMap in="SourceGraphic" in2="n" scale="3.2" xChannelSelector="R" yChannelSelector="G"/>
</filter>
<pattern id="hatch" width="7" height="7" patternUnits="userSpaceOnUse" patternTransform="rotate(-35)">
<line x1="0" y1="0" x2="0" y2="7" stroke="#000000" stroke-width="1.5"/>
</pattern>
<pattern id="hatchDense" width="4" height="4" patternUnits="userSpaceOnUse" patternTransform="rotate(-35)">
<line x1="0" y1="0" x2="0" y2="4" stroke="#000000" stroke-width="1.7"/>
</pattern>
<pattern id="hatchNight" width="3" height="3" patternUnits="userSpaceOnUse" patternTransform="rotate(-35)">
<line x1="0" y1="0" x2="0" y2="3" stroke="#000000" stroke-width="1.9"/>
</pattern>
<pattern id="water" width="9" height="5" patternUnits="userSpaceOnUse">
<line x1="0" y1="2.5" x2="5" y2="2.5" stroke="#000000" stroke-width="1.3"/>
</pattern>
</defs>
<g filter="url(#ink)" stroke="#000000" stroke-linecap="round" stroke-linejoin="round">
<g stroke-width="2.2"><path d="M59.9 420.0L64.2 376.5L71.5 376.5L70.0 420.0ZM80.2 420.0L72.9 376.5L65.7 376.5L70.0 420.0Z" fill="#000000"/><path d="M51.2 379.4C48.2 356.2 52.6 335.9 61.3 330.1H78.7C87.4 335.9 91.8 356.2 88.8 379.4Z" fill="#000000"/><circle cx="70" cy="319.9" r="10.9" fill="#000000"/><path d="M52.6 315.6L87.4 315.6L80.2 306.9L59.9 306.9Z" fill="#000000"/><path d="M84.5 344.6l12 22" fill="none" stroke-width="5.8"/></g>
</g>
</svg>
