<?xml version="1.0" encoding="UTF-8"?>
<!-- LittleVillage — tło „zgliszcza”: wysokie trzciny wokół zgliszcz (kołyszą się)
     Współrzędne płótna 390×844, viewBox = położenie warstwy. Animacje: Resources/Raw/backgrounds.json. -->
<svg xmlns="http://www.w3.org/2000/svg" width="414" height="146" viewBox="-12 280 414 146">
<defs>
<filter id="ink" filterUnits="userSpaceOnUse" x="-60" y="-60" width="520" height="980">
<feTurbulence type="fractalNoise" baseFrequency="0.035" numOctaves="2" seed="7" result="n"/>
<feDisplacementMap in="SourceGraphic" in2="n" scale="3.2" xChannelSelector="R" yChannelSelector="G"/>
</filter>
<pattern id="hatch" width="7" height="7" patternUnits="userSpaceOnUse" patternTransform="rotate(-35)">
<line x1="0" y1="0" x2="0" y2="7" stroke="#000000" stroke-width="1.5"/>
</pattern>
<pattern id="hatchDense" width="4" height="4" patternUnits="userSpaceOnUse" patternTransform="rotate(-35)">
<line x1="0" y1="0" x2="0" y2="4" stroke="#000000" stroke-width="1.7"/>
</pattern>
<pattern id="hatchNight" width="3" height="3" patternUnits="userSpaceOnUse" patternTransform="rotate(-35)">
<line x1="0" y1="0" x2="0" y2="3" stroke="#000000" stroke-width="1.9"/>
</pattern>
<pattern id="water" width="9" height="5" patternUnits="userSpaceOnUse">
<line x1="0" y1="2.5" x2="5" y2="2.5" stroke="#000000" stroke-width="1.3"/>
</pattern>
</defs>
<g filter="url(#ink)" stroke="#000000" stroke-linecap="round" stroke-linejoin="round">
<path d="M-6 405C-4 370 -8 349 -7 335" fill="none" stroke-width="1.8"/>
<path d="M1 405C3 367 -1 344 -2 328" fill="none" stroke-width="1.8"/>
<path d="M8 413C10 374 6 351 10 336" fill="none" stroke-width="1.8"/>
<line x1="8" y1="370.3343288108724" x2="9" y2="347.9" stroke-width="1.4"/><rect x="6.7" y="350.7" width="2.6" height="8.4" rx="1.3" fill="#000000" stroke-width="0.8"/>
<path d="M15 409C17 361 13 332 14 313" fill="none" stroke-width="1.8"/>
<path d="M22 404C24 367 20 345 27 330" fill="none" stroke-width="1.8"/>
<path d="M29 408C31 368 27 344 27 328" fill="none" stroke-width="1.8"/>
<path d="M36 407C38 366 34 342 37 326" fill="none" stroke-width="1.8"/>
<path d="M43 414C45 355 41 320 41 296" fill="none" stroke-width="1.8"/>
<line x1="43" y1="349.336259918218" x2="44" y2="326.9" stroke-width="1.4"/><rect x="41.7" y="329.7" width="2.6" height="8.4" rx="1.3" fill="#000000" stroke-width="0.8"/>
<path d="M50 416C52 360 48 326 44 304" fill="none" stroke-width="1.8"/>
<path d="M57 412C59 355 55 321 54 298" fill="none" stroke-width="1.8"/>
<path d="M64 406C66 353 62 321 66 300" fill="none" stroke-width="1.8"/>
<line x1="64" y1="347.7557404925097" x2="65" y2="325.4" stroke-width="1.4"/><rect x="62.7" y="328.2" width="2.6" height="8.4" rx="1.3" fill="#000000" stroke-width="0.8"/>
<path d="M71 408C73 372 69 350 69 336" fill="none" stroke-width="1.8"/>
<path d="M78 414C80 363 76 332 84 312" fill="none" stroke-width="1.8"/>
<path d="M85 413C87 354 83 318 83 294" fill="none" stroke-width="1.8"/>
<line x1="85" y1="347.65675453207524" x2="86" y2="325.3" stroke-width="1.4"/><rect x="83.7" y="328.1" width="2.6" height="8.4" rx="1.3" fill="#000000" stroke-width="0.8"/>
<path d="M92 411C94 360 90 330 94 309" fill="none" stroke-width="1.8"/>
<line x1="92" y1="354.8966508717888" x2="93" y2="332.5" stroke-width="1.4"/><rect x="90.7" y="335.3" width="2.6" height="8.4" rx="1.3" fill="#000000" stroke-width="0.8"/>
<path d="M99 415C101 375 97 351 100 335" fill="none" stroke-width="1.8"/>
<path d="M106 409C108 371 104 349 111 334" fill="none" stroke-width="1.8"/>
<path d="M298 406C300 347 296 311 297 287" fill="none" stroke-width="1.8"/>
<path d="M305 413C307 367 303 340 306 321" fill="none" stroke-width="1.8"/>
<line x1="305" y1="362.7383655384308" x2="306" y2="340.3" stroke-width="1.4"/><rect x="303.7" y="343.1" width="2.6" height="8.4" rx="1.3" fill="#000000" stroke-width="0.8"/>
<path d="M312 416C314 378 310 356 307 341" fill="none" stroke-width="1.8"/>
<line x1="312" y1="374.57713583584876" x2="313" y2="352.2" stroke-width="1.4"/><rect x="310.7" y="355.0" width="2.6" height="8.4" rx="1.3" fill="#000000" stroke-width="0.8"/>
<path d="M319 413C321 369 317 343 323 326" fill="none" stroke-width="1.8"/>
<path d="M326 413C328 366 324 338 323 319" fill="none" stroke-width="1.8"/>
<path d="M333 412C335 361 331 331 327 311" fill="none" stroke-width="1.8"/>
<line x1="333" y1="356.2848605931267" x2="334" y2="333.9" stroke-width="1.4"/><rect x="331.7" y="336.7" width="2.6" height="8.4" rx="1.3" fill="#000000" stroke-width="0.8"/>
<path d="M340 413C342 374 338 351 342 336" fill="none" stroke-width="1.8"/>
<path d="M347 407C349 353 345 320 350 299" fill="none" stroke-width="1.8"/>
<path d="M354 404C356 360 352 334 353 317" fill="none" stroke-width="1.8"/>
<line x1="354" y1="356.04513807692916" x2="355" y2="333.6" stroke-width="1.4"/><rect x="352.7" y="336.4" width="2.6" height="8.4" rx="1.3" fill="#000000" stroke-width="0.8"/>
<path d="M361 405C363 365 359 341 356 326" fill="none" stroke-width="1.8"/>
<path d="M368 411C370 375 366 353 364 339" fill="none" stroke-width="1.8"/>
<line x1="368" y1="371.4927372243232" x2="369" y2="349.1" stroke-width="1.4"/><rect x="366.7" y="351.9" width="2.6" height="8.4" rx="1.3" fill="#000000" stroke-width="0.8"/>
<path d="M375 408C377 352 373 319 371 297" fill="none" stroke-width="1.8"/>
<path d="M382 410C384 358 380 326 386 306" fill="none" stroke-width="1.8"/>
<path d="M389 413C391 365 387 336 389 316" fill="none" stroke-width="1.8"/>
<path d="M396 406C398 359 394 331 391 312" fill="none" stroke-width="1.8"/>
<path d="M60 422l-3 -24M60 422l2 -35M60 422l6 -21" fill="none" stroke-width="1.8"/>
<path d="M69 422l-3 -27M69 422l2 -39M69 422l6 -23" fill="none" stroke-width="1.8"/>
<path d="M78 422l-3 -24M78 422l2 -34M78 422l6 -20" fill="none" stroke-width="1.8"/>
<path d="M87 422l-3 -22M87 422l2 -32M87 422l6 -19" fill="none" stroke-width="1.8"/>
<path d="M96 422l-3 -16M96 422l2 -23M96 422l6 -14" fill="none" stroke-width="1.8"/>
<path d="M105 422l-3 -26M105 422l2 -37M105 422l6 -22" fill="none" stroke-width="1.8"/>
<path d="M114 422l-3 -16M114 422l2 -22M114 422l6 -13" fill="none" stroke-width="1.8"/>
<path d="M123 422l-3 -20M123 422l2 -28M123 422l6 -17" fill="none" stroke-width="1.8"/>
<path d="M132 422l-3 -16M132 422l2 -23M132 422l6 -14" fill="none" stroke-width="1.8"/>
<path d="M141 422l-3 -19M141 422l2 -28M141 422l6 -17" fill="none" stroke-width="1.8"/>
<path d="M150 422l-3 -18M150 422l2 -26M150 422l6 -16" fill="none" stroke-width="1.8"/>
<path d="M159 422l-3 -20M159 422l2 -29M159 422l6 -17" fill="none" stroke-width="1.8"/>
<path d="M168 422l-3 -24M168 422l2 -34M168 422l6 -21" fill="none" stroke-width="1.8"/>
<path d="M177 422l-3 -22M177 422l2 -31M177 422l6 -18" fill="none" stroke-width="1.8"/>
<path d="M186 422l-3 -17M186 422l2 -25M186 422l6 -15" fill="none" stroke-width="1.8"/>
<path d="M195 422l-3 -25M195 422l2 -36M195 422l6 -21" fill="none" stroke-width="1.8"/>
<path d="M204 422l-3 -24M204 422l2 -35M204 422l6 -21" fill="none" stroke-width="1.8"/>
<path d="M213 422l-3 -26M213 422l2 -37M213 422l6 -22" fill="none" stroke-width="1.8"/>
<path d="M222 422l-3 -14M222 422l2 -21M222 422l6 -12" fill="none" stroke-width="1.8"/>
<path d="M231 422l-3 -23M231 422l2 -32M231 422l6 -19" fill="none" stroke-width="1.8"/>
<path d="M240 422l-3 -27M240 422l2 -38M240 422l6 -23" fill="none" stroke-width="1.8"/>
<path d="M249 422l-3 -18M249 422l2 -25M249 422l6 -15" fill="none" stroke-width="1.8"/>
<path d="M258 422l-3 -17M258 422l2 -24M258 422l6 -14" fill="none" stroke-width="1.8"/>
<path d="M267 422l-3 -25M267 422l2 -36M267 422l6 -22" fill="none" stroke-width="1.8"/>
<path d="M276 422l-3 -19M276 422l2 -27M276 422l6 -16" fill="none" stroke-width="1.8"/>
<path d="M285 422l-3 -20M285 422l2 -28M285 422l6 -17" fill="none" stroke-width="1.8"/>
<path d="M294 422l-3 -25M294 422l2 -36M294 422l6 -22" fill="none" stroke-width="1.8"/>
<path d="M303 422l-3 -19M303 422l2 -28M303 422l6 -17" fill="none" stroke-width="1.8"/>
<path d="M312 422l-3 -17M312 422l2 -24M312 422l6 -14" fill="none" stroke-width="1.8"/>
<path d="M321 422l-3 -17M321 422l2 -24M321 422l6 -15" fill="none" stroke-width="1.8"/>
<path d="M330 422l-3 -19M330 422l2 -27M330 422l6 -16" fill="none" stroke-width="1.8"/>
<path d="M339 422l-3 -24M339 422l2 -34M339 422l6 -20" fill="none" stroke-width="1.8"/>
</g>
</svg>
