<?xml version="1.0" encoding="UTF-8"?>
<!-- LittleVillage — tło „zarośla nocą”: chmury przed księżycem (dryfują)
     Współrzędne płótna 390×844, viewBox = położenie warstwy. Animacje: Resources/Raw/backgrounds.json. -->
<svg xmlns="http://www.w3.org/2000/svg" width="200" height="44" viewBox="180 120 200 44">
<defs>
<filter id="ink" x="-5%" y="-5%" width="110%" height="110%">
<feTurbulence type="fractalNoise" baseFrequency="0.035" numOctaves="2" seed="7" result="n"/>
<feDisplacementMap in="SourceGraphic" in2="n" scale="3.2" xChannelSelector="R" yChannelSelector="G"/>
</filter>
<pattern id="hatch" width="7" height="7" patternUnits="userSpaceOnUse" patternTransform="rotate(-35)">
<line x1="0" y1="0" x2="0" y2="7" stroke="#000000" stroke-width="1.5"/>
</pattern>
<pattern id="hatchDense" width="4" height="4" patternUnits="userSpaceOnUse" patternTransform="rotate(-35)">
<line x1="0" y1="0" x2="0" y2="4" stroke="#000000" stroke-width="1.7"/>
</pattern>
<pattern id="hatchNight" width="3" height="3" patternUnits="userSpaceOnUse" patternTransform="rotate(-35)">
<line x1="0" y1="0" x2="0" y2="3" stroke="#000000" stroke-width="1.9"/>
</pattern>
<pattern id="water" width="9" height="5" patternUnits="userSpaceOnUse">
<line x1="0" y1="2.5" x2="5" y2="2.5" stroke="#000000" stroke-width="1.3"/>
</pattern>
</defs>
<g filter="url(#ink)" stroke="#000000" stroke-linecap="round" stroke-linejoin="round">
<path d="M196 152C192 140 206 132 218 138C224 128 244 128 250 138C262 132 278 136 280 148H200C196 148 194 154 196 152Z" fill="#EDEBE6" stroke-width="2.6"/>
<path d="M300 160C296 150 308 144 318 148C322 140 338 140 342 148C352 144 364 148 364 158H304Z" fill="#EDEBE6" stroke-width="2.4"/>
</g>
</svg>
